<svg xmlns="http://www.w3.org/2000/svg" width="18.559" height="18.484" viewBox="0 0 18.559 18.484">
  <path id="Path_1076" data-name="Path 1076" d="M8.456-16.076l-.276.276a.469.469,0,0,0,0,.663l6.972,6.972H.469A.469.469,0,0,0,0-7.7V-7.3a.469.469,0,0,0,.469.469H15.152L8.179.136a.469.469,0,0,0,0,.663l.276.276a.469.469,0,0,0,.663,0l8.244-8.244a.469.469,0,0,0,0-.663L9.118-16.076A.469.469,0,0,0,8.456-16.076Z" transform="translate(0.5 16.713)" fill="#333" stroke="rgba(0,0,0,0)" stroke-width="1"/>
</svg>
