<svg xmlns="http://www.w3.org/2000/svg" width="18.559" height="18.543" viewBox="0 0 18.559 18.543">
  <path id="Path_1075" data-name="Path 1075" d="M9.044,1.076,9.321.8a.469.469,0,0,0,0-.663L2.348-6.836H17.031A.469.469,0,0,0,17.5-7.3V-7.7a.469.469,0,0,0-.469-.469H2.348l6.972-6.972a.469.469,0,0,0,0-.663l-.276-.276a.469.469,0,0,0-.663,0L.137-7.831a.469.469,0,0,0,0,.663L8.381,1.076A.469.469,0,0,0,9.044,1.076Z" transform="translate(0.559 16.772)" fill="#333" stroke="rgba(0,0,0,0)" stroke-width="1"/>
</svg>
